# xmcd
# 
# Track frame offsets:
#     150
#     12612
#     34620
#     49640
#     79007
#     111905
#     145790
# 
# Disc length: 2237
# 
# Revision: 0
# Processed by: cddbd v1.5.2PL0 Copyright (c) Steve Scherf et al.
# Submitted via: BonkEnc v1.0.5
# 
DISCID=5308bb07
DTITLE=Various Artist - Jazz Piano Vol2
DYEAR=0
DGENRE=Jazz
TTITLE0=Oscar Peterson - The Days Of Wine And Roses
TTITLE1=Ray Bryant - Golden Earrings
TTITLE2=Tommy Franagan - Relaxin' At Camarillo
TTITLE3=Walter Bishop Jr - Sometimes I'm Happy
TTITLE4=Horace Silver - Song For My Father
TTITLE5=Elmo Hope - Like Someone In Love
TTITLE6=Kenny Drew - Caravan
EXTD=
EXTT0=
EXTT1=
EXTT2=
EXTT3=
EXTT4=
EXTT5=
EXTT6=
PLAYORDER=
